<svg width="51" height="51" viewBox="0 0 51 51" fill="none" xmlns="http://www.w3.org/2000/svg">
<path d="M15 1.5H44C47.0376 1.5 49.5 3.96243 49.5 7V36C49.5 43.4558 43.4558 49.5 36 49.5H7C3.96243 49.5 1.5 47.0376 1.5 44V15C1.5 7.54416 7.54416 1.5 15 1.5Z" stroke="#E4FF00" stroke-width="3"/>
<path d="M15.96 35.28C15.1387 35.28 14.3173 35.2147 13.496 35.084C12.6747 34.972 11.9 34.7947 11.172 34.552C10.444 34.2907 9.79067 33.9733 9.212 33.6C8.876 33.376 8.64267 33.1053 8.512 32.788C8.38133 32.4707 8.33467 32.1627 8.372 31.864C8.428 31.5467 8.54933 31.276 8.736 31.052C8.94133 30.8093 9.19333 30.66 9.492 30.604C9.79067 30.548 10.1173 30.632 10.472 30.856C11.2933 31.3413 12.1613 31.696 13.076 31.92C13.9907 32.144 14.952 32.256 15.96 32.256C17.4347 32.256 18.508 32.0133 19.18 31.528C19.852 31.024 20.188 30.38 20.188 29.596C20.188 28.9427 19.9453 28.4293 19.46 28.056C18.9933 27.6827 18.1813 27.3747 17.024 27.132L13.944 26.488C12.1707 26.1147 10.8453 25.4893 9.968 24.612C9.10933 23.716 8.68 22.54 8.68 21.084C8.68 20.1693 8.86667 19.3387 9.24 18.592C9.61333 17.8453 10.136 17.2013 10.808 16.66C11.4987 16.1187 12.3107 15.708 13.244 15.428C14.196 15.1293 15.2413 14.98 16.38 14.98C17.5 14.98 18.564 15.12 19.572 15.4C20.58 15.68 21.4853 16.0907 22.288 16.632C22.5867 16.8373 22.7827 17.0893 22.876 17.388C22.988 17.6867 23.016 17.9853 22.96 18.284C22.904 18.564 22.7733 18.8067 22.568 19.012C22.3627 19.2173 22.1013 19.3387 21.784 19.376C21.4853 19.4133 21.14 19.32 20.748 19.096C20.0573 18.704 19.3573 18.424 18.648 18.256C17.9387 18.088 17.1733 18.004 16.352 18.004C15.4933 18.004 14.756 18.1253 14.14 18.368C13.524 18.6107 13.048 18.956 12.712 19.404C12.3947 19.8333 12.236 20.3467 12.236 20.944C12.236 21.616 12.46 22.1573 12.908 22.568C13.356 22.96 14.1213 23.268 15.204 23.492L18.256 24.136C20.104 24.528 21.476 25.144 22.372 25.984C23.2867 26.824 23.744 27.944 23.744 29.344C23.744 30.24 23.5573 31.052 23.184 31.78C22.8293 32.508 22.3067 33.1333 21.616 33.656C20.944 34.1787 20.132 34.58 19.18 34.86C18.228 35.14 17.1547 35.28 15.96 35.28ZM28.6121 35.224C28.0334 35.224 27.5854 35.0653 27.2681 34.748C26.9694 34.412 26.8201 33.9547 26.8201 33.376V17.08C26.8201 16.4827 26.9787 16.0347 27.2961 15.736C27.6134 15.4187 28.0614 15.26 28.6401 15.26H35.3881C37.5534 15.26 39.2241 15.7827 40.4001 16.828C41.5761 17.8547 42.1641 19.3013 42.1641 21.168C42.1641 22.3813 41.8934 23.4267 41.3521 24.304C40.8294 25.1813 40.0641 25.8533 39.0561 26.32C38.0481 26.7867 36.8254 27.02 35.3881 27.02L35.6401 26.6H36.5641C37.3294 26.6 37.9921 26.7867 38.5521 27.16C39.1307 27.5333 39.6347 28.1213 40.0641 28.924L42.1641 32.816C42.3881 33.208 42.4907 33.5907 42.4721 33.964C42.4534 34.3373 42.3134 34.6453 42.0521 34.888C41.7907 35.112 41.4081 35.224 40.9041 35.224C40.4001 35.224 39.9894 35.1213 39.6721 34.916C39.3547 34.692 39.0747 34.356 38.8321 33.908L36.0041 28.7C35.6681 28.0653 35.2667 27.6453 34.8001 27.44C34.3521 27.216 33.7734 27.104 33.0641 27.104H30.4041V33.376C30.4041 33.9547 30.2547 34.412 29.9561 34.748C29.6574 35.0653 29.2094 35.224 28.6121 35.224ZM30.4041 24.444H34.7721C36.0601 24.444 37.0307 24.1827 37.6841 23.66C38.3561 23.1187 38.6921 22.316 38.6921 21.252C38.6921 20.2067 38.3561 19.4227 37.6841 18.9C37.0307 18.3587 36.0601 18.088 34.7721 18.088H30.4041V24.444Z" fill="#E4FF00"/>
</svg>
