<svg width="51" height="51" viewBox="0 0 51 51" fill="none" xmlns="http://www.w3.org/2000/svg">
<mask id="path-1-inside-1_12_14" fill="white">
<path fill-rule="evenodd" clip-rule="evenodd" d="M15 0C6.71573 0 0 6.71573 0 15V46C0 48.7614 2.23858 51 5 51H36C44.2843 51 51 44.2843 51 36V5C51 2.23858 48.7614 0 46 0H15ZM13.356 35.0561C14.1773 35.1867 15.0173 35.2521 15.876 35.2521C17.0333 35.2521 18.0693 35.1214 18.984 34.8601C19.9173 34.5801 20.7107 34.1881 21.364 33.6841C22.0173 33.1801 22.5213 32.5827 22.876 31.8921C23.2307 31.1827 23.408 30.3894 23.408 29.5121C23.408 28.1494 22.9507 27.0574 22.036 26.2361C21.1213 25.4147 19.7307 24.8081 17.864 24.4161L14.896 23.8001C13.72 23.5574 12.88 23.2027 12.376 22.7361C11.872 22.2694 11.62 21.6441 11.62 20.8601C11.62 20.1694 11.7973 19.5721 12.152 19.0681C12.5253 18.5641 13.048 18.1721 13.72 17.8921C14.4107 17.6121 15.2133 17.4721 16.128 17.4721C17.0427 17.4721 17.8733 17.5841 18.62 17.8081C19.3853 18.0134 20.132 18.3587 20.86 18.8441C21.1773 19.0494 21.4667 19.1427 21.728 19.1241C21.9893 19.0867 22.204 18.9841 22.372 18.8161C22.54 18.6481 22.6427 18.4427 22.68 18.2001C22.736 17.9574 22.7173 17.7147 22.624 17.4721C22.5493 17.2107 22.3907 16.9961 22.148 16.8281C21.3453 16.2121 20.4307 15.7547 19.404 15.4561C18.396 15.1574 17.3133 15.0081 16.156 15.0081C15.0733 15.0081 14.0747 15.1481 13.16 15.4281C12.2453 15.7081 11.4613 16.1187 10.808 16.6601C10.1547 17.1827 9.64133 17.8081 9.268 18.5361C8.91333 19.2641 8.736 20.0667 8.736 20.9441C8.736 22.4001 9.16533 23.5574 10.024 24.4161C10.9013 25.2747 12.2267 25.8907 14 26.2641L16.996 26.8801C18.2653 27.1414 19.1707 27.4961 19.712 27.9441C20.2533 28.3734 20.524 28.9614 20.524 29.7081C20.524 30.6227 20.1413 31.3694 19.376 31.9481C18.6293 32.5081 17.4627 32.7881 15.876 32.7881C14.7747 32.7881 13.7573 32.6667 12.824 32.4241C11.8907 32.1627 11.004 31.7614 10.164 31.2201C9.86533 31.0147 9.59467 30.9401 9.352 30.9961C9.10933 31.0334 8.904 31.1454 8.736 31.3321C8.568 31.5187 8.456 31.7427 8.4 32.0041C8.36267 32.2467 8.39067 32.4987 8.484 32.7601C8.596 33.0214 8.792 33.2547 9.072 33.4601C9.65067 33.8521 10.304 34.1881 11.032 34.4681C11.76 34.7294 12.5347 34.9254 13.356 35.0561ZM27.078 34.8041C27.3393 35.0654 27.7033 35.1961 28.17 35.1961C28.6553 35.1961 29.0193 35.0654 29.262 34.8041C29.5046 34.5427 29.626 34.1787 29.626 33.7121V26.8521H32.79C33.6113 26.8521 34.274 26.9827 34.778 27.2441C35.282 27.4867 35.73 27.9721 36.122 28.7001L39.062 34.1321C39.2673 34.4867 39.4913 34.7574 39.734 34.9441C39.9953 35.1121 40.3313 35.1961 40.742 35.1961C41.134 35.1961 41.4326 35.1027 41.638 34.9161C41.862 34.7294 41.974 34.4867 41.974 34.1881C41.9926 33.8707 41.9086 33.5441 41.722 33.2081L39.314 28.7281C38.866 27.9067 38.362 27.3094 37.802 26.9361C37.5691 26.7754 37.3172 26.6494 37.0463 26.5579C37.5621 26.4474 38.038 26.2935 38.474 26.0961C39.482 25.6481 40.2473 24.9947 40.77 24.1361C41.2926 23.2774 41.554 22.2507 41.554 21.0561C41.554 19.2081 40.9753 17.7801 39.818 16.7721C38.6606 15.7641 37.018 15.2601 34.89 15.2601H28.198C27.7313 15.2601 27.3673 15.3907 27.106 15.6521C26.8446 15.8947 26.714 16.2587 26.714 16.7441V33.7121C26.714 34.1787 26.8353 34.5427 27.078 34.8041ZM34.414 24.6681H29.626V17.5841H34.414C35.8326 17.5841 36.906 17.8827 37.634 18.4801C38.362 19.0774 38.726 19.9547 38.726 21.1121C38.726 22.2881 38.362 23.1747 37.634 23.7721C36.906 24.3694 35.8326 24.6681 34.414 24.6681Z"/>
</mask>
<path fill-rule="evenodd" clip-rule="evenodd" d="M15 0C6.71573 0 0 6.71573 0 15V46C0 48.7614 2.23858 51 5 51H36C44.2843 51 51 44.2843 51 36V5C51 2.23858 48.7614 0 46 0H15ZM13.356 35.0561C14.1773 35.1867 15.0173 35.2521 15.876 35.2521C17.0333 35.2521 18.0693 35.1214 18.984 34.8601C19.9173 34.5801 20.7107 34.1881 21.364 33.6841C22.0173 33.1801 22.5213 32.5827 22.876 31.8921C23.2307 31.1827 23.408 30.3894 23.408 29.5121C23.408 28.1494 22.9507 27.0574 22.036 26.2361C21.1213 25.4147 19.7307 24.8081 17.864 24.4161L14.896 23.8001C13.72 23.5574 12.88 23.2027 12.376 22.7361C11.872 22.2694 11.62 21.6441 11.62 20.8601C11.62 20.1694 11.7973 19.5721 12.152 19.0681C12.5253 18.5641 13.048 18.1721 13.72 17.8921C14.4107 17.6121 15.2133 17.4721 16.128 17.4721C17.0427 17.4721 17.8733 17.5841 18.62 17.8081C19.3853 18.0134 20.132 18.3587 20.86 18.8441C21.1773 19.0494 21.4667 19.1427 21.728 19.1241C21.9893 19.0867 22.204 18.9841 22.372 18.8161C22.54 18.6481 22.6427 18.4427 22.68 18.2001C22.736 17.9574 22.7173 17.7147 22.624 17.4721C22.5493 17.2107 22.3907 16.9961 22.148 16.8281C21.3453 16.2121 20.4307 15.7547 19.404 15.4561C18.396 15.1574 17.3133 15.0081 16.156 15.0081C15.0733 15.0081 14.0747 15.1481 13.16 15.4281C12.2453 15.7081 11.4613 16.1187 10.808 16.6601C10.1547 17.1827 9.64133 17.8081 9.268 18.5361C8.91333 19.2641 8.736 20.0667 8.736 20.9441C8.736 22.4001 9.16533 23.5574 10.024 24.4161C10.9013 25.2747 12.2267 25.8907 14 26.2641L16.996 26.8801C18.2653 27.1414 19.1707 27.4961 19.712 27.9441C20.2533 28.3734 20.524 28.9614 20.524 29.7081C20.524 30.6227 20.1413 31.3694 19.376 31.9481C18.6293 32.5081 17.4627 32.7881 15.876 32.7881C14.7747 32.7881 13.7573 32.6667 12.824 32.4241C11.8907 32.1627 11.004 31.7614 10.164 31.2201C9.86533 31.0147 9.59467 30.9401 9.352 30.9961C9.10933 31.0334 8.904 31.1454 8.736 31.3321C8.568 31.5187 8.456 31.7427 8.4 32.0041C8.36267 32.2467 8.39067 32.4987 8.484 32.7601C8.596 33.0214 8.792 33.2547 9.072 33.4601C9.65067 33.8521 10.304 34.1881 11.032 34.4681C11.76 34.7294 12.5347 34.9254 13.356 35.0561ZM27.078 34.8041C27.3393 35.0654 27.7033 35.1961 28.17 35.1961C28.6553 35.1961 29.0193 35.0654 29.262 34.8041C29.5046 34.5427 29.626 34.1787 29.626 33.7121V26.8521H32.79C33.6113 26.8521 34.274 26.9827 34.778 27.2441C35.282 27.4867 35.73 27.9721 36.122 28.7001L39.062 34.1321C39.2673 34.4867 39.4913 34.7574 39.734 34.9441C39.9953 35.1121 40.3313 35.1961 40.742 35.1961C41.134 35.1961 41.4326 35.1027 41.638 34.9161C41.862 34.7294 41.974 34.4867 41.974 34.1881C41.9926 33.8707 41.9086 33.5441 41.722 33.2081L39.314 28.7281C38.866 27.9067 38.362 27.3094 37.802 26.9361C37.5691 26.7754 37.3172 26.6494 37.0463 26.5579C37.5621 26.4474 38.038 26.2935 38.474 26.0961C39.482 25.6481 40.2473 24.9947 40.77 24.1361C41.2926 23.2774 41.554 22.2507 41.554 21.0561C41.554 19.2081 40.9753 17.7801 39.818 16.7721C38.6606 15.7641 37.018 15.2601 34.89 15.2601H28.198C27.7313 15.2601 27.3673 15.3907 27.106 15.6521C26.8446 15.8947 26.714 16.2587 26.714 16.7441V33.7121C26.714 34.1787 26.8353 34.5427 27.078 34.8041ZM34.414 24.6681H29.626V17.5841H34.414C35.8326 17.5841 36.906 17.8827 37.634 18.4801C38.362 19.0774 38.726 19.9547 38.726 21.1121C38.726 22.2881 38.362 23.1747 37.634 23.7721C36.906 24.3694 35.8326 24.6681 34.414 24.6681Z" fill="#E4FF00"/>
<path d="M13.356 35.0561L12.8846 38.0188L12.8847 38.0188L13.356 35.0561ZM18.984 34.8601L19.8082 37.7446L19.8271 37.7392L19.846 37.7335L18.984 34.8601ZM21.364 33.6841L23.1964 36.0594L23.1964 36.0594L21.364 33.6841ZM22.876 31.8921L25.5447 33.2625L25.5521 33.2481L25.5593 33.2337L22.876 31.8921ZM22.036 26.2361L20.0316 28.4682L20.0316 28.4682L22.036 26.2361ZM17.864 24.4161L18.4806 21.4801L18.4736 21.4787L17.864 24.4161ZM14.896 23.8001L15.5056 20.8627L15.5023 20.862L14.896 23.8001ZM12.376 22.7361L14.4142 20.5348L14.4142 20.5348L12.376 22.7361ZM12.152 19.0681L9.74133 17.2824L9.71959 17.3117L9.69858 17.3416L12.152 19.0681ZM13.72 17.8921L12.5929 15.1118L12.5795 15.1173L12.5662 15.1228L13.72 17.8921ZM18.62 17.8081L17.758 20.6815L17.8001 20.6942L17.8426 20.7056L18.62 17.8081ZM20.86 18.8441L19.1959 21.3402L19.213 21.3516L19.2302 21.3628L20.86 18.8441ZM21.728 19.1241L21.9417 22.1164L22.0474 22.1089L22.1523 22.0939L21.728 19.1241ZM22.372 18.8161L20.2507 16.6947L20.2507 16.6947L22.372 18.8161ZM22.68 18.2001L19.7568 17.5255L19.7318 17.6339L19.7149 17.7439L22.68 18.2001ZM22.624 17.4721L19.7394 18.2962L19.7761 18.4245L19.824 18.549L22.624 17.4721ZM22.148 16.8281L20.3215 19.208L20.3799 19.2528L20.4404 19.2946L22.148 16.8281ZM19.404 15.4561L18.5517 18.3325L18.5589 18.3346L18.566 18.3366L19.404 15.4561ZM13.16 15.4281L14.0381 18.2967L14.0381 18.2967L13.16 15.4281ZM10.808 16.6601L12.6821 19.0027L12.7022 18.9866L12.722 18.9701L10.808 16.6601ZM9.268 18.5361L6.59855 17.1671L6.58451 17.1945L6.57103 17.2221L9.268 18.5361ZM10.024 24.4161L7.90268 26.5374L7.91408 26.5488L7.92561 26.5601L10.024 24.4161ZM14 26.2641L13.382 29.1997L13.3889 29.2012L13.3958 29.2026L14 26.2641ZM16.996 26.8801L17.601 23.9417L17.6002 23.9415L16.996 26.8801ZM19.712 27.9441L17.7993 30.2552L17.8234 30.2751L17.8478 30.2945L19.712 27.9441ZM19.376 31.9481L21.176 34.3481L21.1853 34.341L19.376 31.9481ZM12.824 32.4241L12.0151 35.3129L12.042 35.3205L12.0691 35.3275L12.824 32.4241ZM10.164 31.2201L8.46441 33.6922L8.50128 33.7175L8.53889 33.7418L10.164 31.2201ZM9.352 30.9961L9.80816 33.9612L9.91815 33.9443L10.0266 33.9192L9.352 30.9961ZM8.4 32.0041L5.46659 31.3755L5.44822 31.4612L5.43488 31.5479L8.4 32.0041ZM8.484 32.7601L5.65878 33.7691L5.69 33.8565L5.72656 33.9418L8.484 32.7601ZM9.072 33.4601L7.2979 35.8793L7.34308 35.9124L7.38946 35.9438L9.072 33.4601ZM11.032 34.4681L9.95507 37.2681L9.9866 37.2802L10.0184 37.2916L11.032 34.4681ZM27.078 34.8041L24.8796 36.8454L24.9174 36.8861L24.9566 36.9254L27.078 34.8041ZM29.626 26.8521V23.8521H26.626V26.8521H29.626ZM34.778 27.2441L33.397 29.9073L33.4365 29.9278L33.4765 29.9471L34.778 27.2441ZM36.122 28.7001L33.4805 30.1224L33.4836 30.128L36.122 28.7001ZM39.062 34.1321L36.4236 35.56L36.4441 35.5979L36.4657 35.6352L39.062 34.1321ZM39.734 34.9441L37.9048 37.3219L38.0052 37.3991L38.1117 37.4676L39.734 34.9441ZM41.638 34.9161L39.7174 32.6114L39.6678 32.6528L39.6199 32.6962L41.638 34.9161ZM41.974 34.1881L38.9791 34.0119L38.974 34.0999V34.1881H41.974ZM41.722 33.2081L39.0795 34.6284L39.0894 34.6468L39.0995 34.665L41.722 33.2081ZM39.314 28.7281L41.9564 27.3077L41.9521 27.2996L41.9477 27.2915L39.314 28.7281ZM37.802 26.9361L36.0988 29.4057L36.1182 29.4191L36.1379 29.4322L37.802 26.9361ZM37.0463 26.5579L36.4182 23.6243L25.7501 25.9083L36.0861 29.4001L37.0463 26.5579ZM38.474 26.0961L37.2556 23.3546L37.246 23.3589L37.2364 23.3632L38.474 26.0961ZM40.77 24.1361L43.3326 25.6959L43.3326 25.6959L40.77 24.1361ZM39.818 16.7721L41.7883 14.5098L41.7883 14.5098L39.818 16.7721ZM27.106 15.6521L29.1473 17.8504L29.188 17.8126L29.2273 17.7734L27.106 15.6521ZM29.626 24.6681H26.626V27.6681H29.626V24.6681ZM29.626 17.5841V14.5841H26.626V17.5841H29.626ZM37.634 23.7721L35.731 21.4528L35.731 21.4528L37.634 23.7721ZM3 15C3 8.37258 8.37258 3 15 3V-3C5.05888 -3 -3 5.05887 -3 15H3ZM3 46V15H-3V46H3ZM5 48C3.89543 48 3 47.1046 3 46H-3C-3 50.4183 0.581722 54 5 54V48ZM36 48H5V54H36V48ZM48 36C48 42.6274 42.6274 48 36 48V54C45.9411 54 54 45.9411 54 36H48ZM48 5V36H54V5H48ZM46 3C47.1046 3 48 3.89543 48 5H54C54 0.581723 50.4183 -3 46 -3V3ZM15 3H46V-3H15V3ZM15.876 32.2521C15.1701 32.2521 14.4878 32.1984 13.8273 32.0933L12.8847 38.0188C13.8668 38.1751 14.8646 38.2521 15.876 38.2521V32.2521ZM18.1598 31.9755C17.5637 32.1458 16.8126 32.2521 15.876 32.2521V38.2521C17.2541 38.2521 18.5749 38.097 19.8082 37.7446L18.1598 31.9755ZM19.5316 31.3087C19.2159 31.5522 18.7663 31.7933 18.122 31.9866L19.846 37.7335C21.0683 37.3669 22.2054 36.8239 23.1964 36.0594L19.5316 31.3087ZM20.2073 30.5216C20.0667 30.7955 19.8581 31.0569 19.5316 31.3087L23.1964 36.0594C24.1766 35.3032 24.976 34.3699 25.5447 33.2625L20.2073 30.5216ZM20.408 29.5121C20.408 29.9738 20.3178 30.3003 20.1927 30.5504L25.5593 33.2337C26.1436 32.0651 26.408 30.805 26.408 29.5121H20.408ZM20.0316 28.4682C20.2398 28.6551 20.408 28.898 20.408 29.5121H26.408C26.408 27.4008 25.6615 25.4597 24.0404 24.0039L20.0316 28.4682ZM17.2474 27.352C18.8579 27.6902 19.6689 28.1425 20.0316 28.4682L24.0404 24.0039C22.5738 22.6869 20.6034 21.9259 18.4805 21.4801L17.2474 27.352ZM14.2863 26.7375L17.2543 27.3535L18.4736 21.4787L15.5056 20.8627L14.2863 26.7375ZM10.3378 24.9373C11.4421 25.9599 12.9276 26.4571 14.2897 26.7382L15.5023 20.862C15.0498 20.7686 14.7438 20.6697 14.5509 20.5883C14.353 20.5047 14.3423 20.4681 14.4142 20.5348L10.3378 24.9373ZM8.62 20.8601C8.62 22.3497 9.13126 23.8202 10.3378 24.9373L14.4142 20.5348C14.4431 20.5615 14.4777 20.5995 14.5118 20.6487C14.546 20.6981 14.5726 20.7487 14.5916 20.7957C14.6306 20.8926 14.62 20.9295 14.62 20.8601H8.62ZM9.69858 17.3416C8.94597 18.4111 8.62 19.6291 8.62 20.8601H14.62C14.62 20.7728 14.6309 20.7412 14.6289 20.7479C14.6282 20.7504 14.6257 20.758 14.6206 20.7684C14.6155 20.779 14.61 20.788 14.6054 20.7945L9.69858 17.3416ZM12.5662 15.1228C11.4756 15.5772 10.4859 16.2772 9.74133 17.2824L14.5627 20.8537C14.5648 20.8509 14.6204 20.7669 14.8738 20.6613L12.5662 15.1228ZM16.128 14.4721C14.9122 14.4721 13.7129 14.6578 12.5929 15.1118L14.8471 20.6723C15.1084 20.5663 15.5145 20.4721 16.128 20.4721V14.4721ZM19.482 14.9346C18.4122 14.6136 17.2854 14.4721 16.128 14.4721V20.4721C16.7999 20.4721 17.3345 20.5545 17.758 20.6815L19.482 14.9346ZM22.5241 16.3479C21.5525 15.7002 20.5092 15.2088 19.3974 14.9105L17.8426 20.7056C18.2614 20.8179 18.7115 21.0173 19.1959 21.3402L22.5241 16.3479ZM21.5143 16.1317C21.8235 16.1096 22.0726 16.1602 22.236 16.2129C22.3932 16.2636 22.479 16.3184 22.4898 16.3254L19.2302 21.3628C19.8607 21.7707 20.7993 22.198 21.9417 22.1164L21.5143 16.1317ZM20.2507 16.6947C20.5926 16.3528 20.9976 16.1979 21.3037 16.1542L22.1523 22.0939C22.981 21.9755 23.8154 21.6153 24.4933 20.9374L20.2507 16.6947ZM19.7149 17.7439C19.7403 17.5786 19.7943 17.3892 19.8917 17.1944C19.9896 16.9987 20.1147 16.8307 20.2507 16.6947L24.4933 20.9374C25.1284 20.3023 25.5142 19.507 25.6451 18.6562L19.7149 17.7439ZM19.824 18.549C19.7125 18.2592 19.6721 17.8924 19.7568 17.5255L25.6032 18.8746C25.7999 18.0224 25.7222 17.1703 25.424 16.3951L19.824 18.549ZM20.4404 19.2946C20.3192 19.2108 20.1725 19.0823 20.0365 18.8982C19.8984 18.7114 19.7989 18.5045 19.7394 18.2962L25.5086 16.6479C25.2265 15.6605 24.6162 14.888 23.8556 14.3615L20.4404 19.2946ZM18.566 18.3366C19.2555 18.5372 19.8309 18.8315 20.3215 19.208L23.9745 14.4481C22.8597 13.5926 21.6058 12.9722 20.242 12.5755L18.566 18.3366ZM16.156 18.0081C17.0536 18.0081 17.8467 18.1236 18.5517 18.3325L20.2563 12.5797C18.9453 12.1912 17.5731 12.0081 16.156 12.0081V18.0081ZM14.0381 18.2967C14.6336 18.1144 15.3324 18.0081 16.156 18.0081V12.0081C14.8143 12.0081 13.5158 12.1817 12.2819 12.5595L14.0381 18.2967ZM12.722 18.9701C13.0338 18.7118 13.4541 18.4754 14.0381 18.2967L12.2819 12.5595C11.0365 12.9407 9.88882 13.5257 8.89395 14.35L12.722 18.9701ZM11.9375 19.905C12.113 19.5628 12.352 19.2668 12.6821 19.0027L8.93391 14.3175C7.95737 15.0987 7.16971 16.0533 6.59855 17.1671L11.9375 19.905ZM11.736 20.9441C11.736 20.4834 11.826 20.1353 11.965 19.85L6.57103 17.2221C6.00069 18.3928 5.736 19.6501 5.736 20.9441H11.736ZM12.1453 22.2947C11.9588 22.1082 11.736 21.7739 11.736 20.9441H5.736C5.736 23.0262 6.37191 25.0066 7.90268 26.5374L12.1453 22.2947ZM14.618 23.3284C13.1534 23.0201 12.441 22.5839 12.1224 22.2721L7.92561 26.5601C9.36162 27.9655 11.3 28.7614 13.382 29.1997L14.618 23.3284ZM17.6002 23.9415L14.6042 23.3255L13.3958 29.2026L16.3918 29.8186L17.6002 23.9415ZM21.6247 25.6329C20.5058 24.7069 19.009 24.2316 17.601 23.9417L16.391 29.8184C16.9101 29.9253 17.281 30.0368 17.5327 30.1354C17.7939 30.2377 17.8482 30.2957 17.7993 30.2552L21.6247 25.6329ZM23.524 29.7081C23.524 28.1305 22.899 26.6427 21.5762 25.5936L17.8478 30.2945C17.7749 30.2367 17.6706 30.124 17.5959 29.9615C17.5243 29.8061 17.524 29.7016 17.524 29.7081H23.524ZM21.1853 34.341C22.6577 33.2278 23.524 31.6154 23.524 29.7081H17.524C17.524 29.7265 17.5222 29.7178 17.5288 29.6892C17.5356 29.6595 17.5482 29.6229 17.5672 29.5858C17.586 29.549 17.6038 29.5263 17.6107 29.5184C17.6167 29.5114 17.6062 29.5252 17.5667 29.5551L21.1853 34.341ZM15.876 35.7881C17.7018 35.7881 19.6572 35.4872 21.176 34.3481L17.576 29.5481C17.6093 29.5231 17.5351 29.5903 17.2409 29.6609C16.9467 29.7315 16.5043 29.7881 15.876 29.7881V35.7881ZM12.0691 35.3275C13.2809 35.6426 14.5553 35.7881 15.876 35.7881V29.7881C14.994 29.7881 14.2337 29.6908 13.5789 29.5206L12.0691 35.3275ZM8.53889 33.7418C9.62318 34.4405 10.784 34.9682 12.0151 35.3129L13.6329 29.5352C12.9974 29.3572 12.3848 29.0823 11.7891 28.6983L8.53889 33.7418ZM10.0266 33.9192C9.13534 34.1249 8.53889 33.7434 8.46441 33.6922L11.8636 28.7479C11.1918 28.2861 10.054 27.7552 8.67742 28.0729L10.0266 33.9192ZM10.9659 33.339C10.8396 33.4793 10.6692 33.6236 10.4526 33.7417C10.2351 33.8603 10.0131 33.9296 9.80816 33.9612L8.89584 28.0309C7.95225 28.1761 7.12559 28.6369 6.50612 29.3252L10.9659 33.339ZM11.3334 32.6326C11.2868 32.8502 11.1715 33.1104 10.9659 33.339L6.50612 29.3252C5.96446 29.927 5.62521 30.6352 5.46659 31.3755L11.3334 32.6326ZM11.3092 31.751C11.3613 31.897 11.4129 32.1493 11.3651 32.4602L5.43488 31.5479C5.31238 32.3441 5.41999 33.1005 5.65878 33.7691L11.3092 31.751ZM10.8461 31.0408C10.9032 31.0827 11.1 31.2482 11.2414 31.5783L5.72656 33.9418C6.09202 34.7946 6.68082 35.4267 7.2979 35.8793L10.8461 31.0408ZM12.1089 31.668C11.5699 31.4607 11.1237 31.2264 10.7545 30.9763L7.38946 35.9438C8.17766 36.4778 9.03806 36.9154 9.95507 37.2681L12.1089 31.668ZM13.8274 32.0933C13.177 31.9899 12.585 31.8381 12.0456 31.6445L10.0184 37.2916C10.935 37.6207 11.8923 37.8609 12.8846 38.0188L13.8274 32.0933ZM28.17 32.1961C28.2129 32.1961 28.358 32.2018 28.5606 32.2745C28.7753 32.3515 29.0025 32.4859 29.1993 32.6827L24.9566 36.9254C25.9191 37.8878 27.1277 38.1961 28.17 38.1961V32.1961ZM27.0636 32.7627C27.296 32.5124 27.5625 32.3573 27.7934 32.2745C28.0075 32.1976 28.1515 32.1961 28.17 32.1961V38.1961C29.1771 38.1961 30.4676 37.9145 31.4604 36.8454L27.0636 32.7627ZM26.626 33.7121C26.626 33.6618 26.648 33.2103 27.0636 32.7627L31.4604 36.8454C32.3613 35.8751 32.626 34.6957 32.626 33.7121H26.626ZM26.626 26.8521V33.7121H32.626V26.8521H26.626ZM32.79 23.8521H29.626V29.8521H32.79V23.8521ZM36.1589 24.5808C35.0805 24.0216 33.8921 23.8521 32.79 23.8521V29.8521C33.0459 29.8521 33.2181 29.8728 33.3226 29.8934C33.4263 29.9138 33.4397 29.9295 33.397 29.9073L36.1589 24.5808ZM38.7634 27.2778C38.2078 26.246 37.3682 25.1616 36.0794 24.5411L33.4765 29.9471C33.3326 29.8778 33.2744 29.8106 33.2876 29.8249C33.3043 29.843 33.3754 29.9271 33.4806 30.1224L38.7634 27.2778ZM41.7003 32.7041L38.7603 27.2721L33.4836 30.128L36.4236 35.56L41.7003 32.7041ZM41.5631 32.5662C41.6431 32.6277 41.6848 32.6759 41.6951 32.6883C41.7052 32.7005 41.6908 32.6852 41.6582 32.6289L36.4657 35.6352C36.8045 36.2204 37.2661 36.8306 37.9048 37.3219L41.5631 32.5662ZM40.742 32.1961C40.7252 32.1961 41.0009 32.1921 41.3563 32.4205L38.1117 37.4676C38.9897 38.032 39.9374 38.1961 40.742 38.1961V32.1961ZM39.6199 32.6962C40.1583 32.2068 40.6948 32.1961 40.742 32.1961V38.1961C41.5732 38.1961 42.707 37.9986 43.656 37.1359L39.6199 32.6962ZM38.974 34.1881C38.974 33.9546 39.0198 33.6537 39.1661 33.3369C39.3133 33.018 39.5188 32.7769 39.7174 32.6114L43.5585 37.2207C44.4854 36.4483 44.974 35.3521 44.974 34.1881H38.974ZM39.0995 34.665C39.0678 34.6079 38.958 34.3722 38.9791 34.0119L44.9688 34.3642C45.0273 33.3692 44.7495 32.4802 44.3444 31.7511L39.0995 34.665ZM36.6715 30.1484L39.0795 34.6284L44.3644 31.7877L41.9564 27.3077L36.6715 30.1484ZM36.1379 29.4322C36.1671 29.4517 36.3791 29.6125 36.6803 30.1646L41.9477 27.2915C41.3528 26.2009 40.5569 25.1671 39.4661 24.4399L36.1379 29.4322ZM36.0861 29.4001C36.0925 29.4022 36.0953 29.4036 36.0957 29.4038C36.0961 29.404 36.0969 29.4044 36.0988 29.4057L39.5052 24.4664C39.0406 24.146 38.5382 23.8953 38.0064 23.7157L36.0861 29.4001ZM37.2364 23.3632C37.0145 23.4637 36.7453 23.5543 36.4182 23.6243L37.6743 29.4914C38.3788 29.3406 39.0614 29.1233 39.7115 28.8289L37.2364 23.3632ZM38.2074 22.5762C38.033 22.8627 37.7625 23.1293 37.2556 23.3546L39.6924 28.8375C41.2014 28.1668 42.4616 27.1267 43.3326 25.6959L38.2074 22.5762ZM38.554 21.0561C38.554 21.8051 38.3941 22.2695 38.2074 22.5762L43.3326 25.6959C44.1912 24.2853 44.554 22.6963 44.554 21.0561H38.554ZM37.8476 19.0343C38.2177 19.3566 38.554 19.8819 38.554 21.0561H44.554C44.554 18.5342 43.7329 16.2035 41.7883 14.5098L37.8476 19.0343ZM34.89 18.2601C36.5731 18.2601 37.4157 18.6581 37.8476 19.0343L41.7883 14.5098C39.9056 12.87 37.4628 12.2601 34.89 12.2601V18.2601ZM28.198 18.2601H34.89V12.2601H28.198V18.2601ZM29.2273 17.7734C29.0305 17.9702 28.8033 18.1046 28.5886 18.1816C28.386 18.2544 28.2409 18.2601 28.198 18.2601V12.2601C27.1557 12.2601 25.9471 12.5683 24.9846 13.5307L29.2273 17.7734ZM29.714 16.7441C29.714 16.7625 29.7124 16.9065 29.6356 17.1207C29.5527 17.3515 29.3976 17.618 29.1473 17.8504L25.0646 13.4537C23.9955 14.4464 23.714 15.7369 23.714 16.7441H29.714ZM29.714 33.7121V16.7441H23.714V33.7121H29.714ZM29.2764 32.7627C29.692 33.2103 29.714 33.6618 29.714 33.7121H23.714C23.714 34.6957 23.9786 35.8751 24.8796 36.8454L29.2764 32.7627ZM29.626 27.6681H34.414V21.6681H29.626V27.6681ZM26.626 17.5841V24.6681H32.626V17.5841H26.626ZM34.414 14.5841H29.626V20.5841H34.414V14.5841ZM39.5369 16.1608C38.0595 14.9486 36.1894 14.5841 34.414 14.5841V20.5841C35.4759 20.5841 35.7524 20.8168 35.731 20.7993L39.5369 16.1608ZM41.726 21.1121C41.726 19.2822 41.1169 17.4572 39.5369 16.1608L35.731 20.7993C35.7274 20.7963 35.7149 20.7849 35.7008 20.7659C35.6868 20.747 35.6814 20.7342 35.682 20.7357C35.6837 20.7397 35.726 20.844 35.726 21.1121H41.726ZM39.5369 26.0913C41.1283 24.7855 41.726 22.9423 41.726 21.1121H35.726C35.726 21.3954 35.6818 21.5099 35.6777 21.5197C35.6761 21.5238 35.6809 21.5115 35.6954 21.4918C35.7101 21.4718 35.7244 21.4583 35.731 21.4528L39.5369 26.0913ZM34.414 27.6681C36.1894 27.6681 38.0595 27.3035 39.5369 26.0913L35.731 21.4528C35.7524 21.4353 35.4759 21.6681 34.414 21.6681V27.6681Z" fill="#E4FF00" mask="url(#path-1-inside-1_12_14)"/>
</svg>
