<svg width="51" height="51" viewBox="0 0 51 51" fill="none" xmlns="http://www.w3.org/2000/svg">
<rect x="0.5" y="0.5" width="50" height="50" stroke="#3A3A3A"/>
<path d="M15.0312 46.4688C13.3594 46.4688 12 46.1719 10.9531 45.5781C9.90625 44.9688 9.10156 44.1094 8.53906 43C7.97656 41.8906 7.58594 40.5859 7.36719 39.0859C7.16406 37.5703 7.0625 35.8984 7.0625 34.0703V30.0625H11.7734V34.2578C11.7734 37.1484 11.9766 39.2188 12.3828 40.4688C12.8047 41.7031 13.7031 42.3203 15.0781 42.3203C16.0312 42.3203 16.7266 42.1016 17.1641 41.6641C17.6172 41.2109 17.9062 40.4922 18.0312 39.5078C18.1562 38.5234 18.2188 37.2266 18.2188 35.6172C18.2188 33.7734 17.8906 32.1875 17.2344 30.8594C16.5938 29.5312 15.6641 28.2578 14.4453 27.0391L11.75 24.3438C10.9688 23.5469 10.2031 22.6797 9.45312 21.7422C8.70312 20.7891 8.07812 19.7109 7.57812 18.5078C7.09375 17.3047 6.85156 15.9297 6.85156 14.3828C6.85156 12.3047 7.07031 10.5078 7.50781 8.99219C7.94531 7.47656 8.74219 6.30469 9.89844 5.47656C11.0547 4.64844 12.6953 4.23438 14.8203 4.23438C16.4922 4.23438 17.8281 4.52344 18.8281 5.10156C19.8438 5.67969 20.6016 6.50781 21.1016 7.58594C21.6172 8.64844 21.9531 9.91406 22.1094 11.3828C22.2812 12.8516 22.3672 14.4766 22.3672 16.2578V18.6953H17.7266V15.9297C17.7266 14.2578 17.6562 12.8672 17.5156 11.7578C17.3906 10.6328 17.125 9.78906 16.7188 9.22656C16.3125 8.66406 15.6797 8.38281 14.8203 8.38281C14.0391 8.38281 13.3984 8.57812 12.8984 8.96875C12.4141 9.34375 12.0625 9.92969 11.8438 10.7266C11.625 11.5234 11.5156 12.5469 11.5156 13.7969C11.5156 14.8906 11.6484 15.7969 11.9141 16.5156C12.1797 17.2188 12.5781 17.875 13.1094 18.4844C13.6562 19.0938 14.3203 19.8125 15.1016 20.6406L17.9141 23.6172C19.3984 25.1641 20.6094 26.8984 21.5469 28.8203C22.5 30.7266 22.9766 32.9453 22.9766 35.4766C22.9766 37.7578 22.75 39.7188 22.2969 41.3594C21.8594 43 21.0703 44.2656 19.9297 45.1562C18.7891 46.0312 17.1562 46.4688 15.0312 46.4688ZM27.7812 46V4.75H36.4297C38.6172 4.75 40.2344 5.14063 41.2812 5.92188C42.3281 6.6875 43.0078 7.85156 43.3203 9.41406C43.6484 10.9609 43.8125 12.9141 43.8125 15.2734C43.8125 17.8203 43.5547 19.8438 43.0391 21.3438C42.5234 22.8438 41.5234 23.8125 40.0391 24.25C40.7891 24.375 41.4062 24.6953 41.8906 25.2109C42.3906 25.7266 42.7812 26.5312 43.0625 27.625C43.3438 28.7188 43.5391 30.1875 43.6484 32.0312C43.7734 33.8594 43.8359 36.1641 43.8359 38.9453C43.8359 39.2109 43.8359 39.5938 43.8359 40.0938C43.8359 40.5938 43.8438 41.1406 43.8594 41.7344C43.875 42.3281 43.8906 42.9141 43.9062 43.4922C43.9375 44.0703 43.9766 44.5859 44.0234 45.0391C44.0703 45.4766 44.1328 45.7969 44.2109 46H39.3828C39.3203 45.8594 39.2656 45.5469 39.2188 45.0625C39.1719 44.5781 39.1328 43.9375 39.1016 43.1406C39.0703 42.3438 39.0469 41.3984 39.0312 40.3047C39.0156 39.1953 39.0078 37.9609 39.0078 36.6016C39.0078 35.2266 39.0078 33.7266 39.0078 32.1016C39.0078 30.5391 38.9375 29.3516 38.7969 28.5391C38.6719 27.7109 38.3594 27.1406 37.8594 26.8281C37.375 26.5 36.5938 26.3047 35.5156 26.2422L32.6328 26.0781V46H27.7812ZM32.6328 22.5156H35.7266C36.6172 22.5156 37.2969 22.3438 37.7656 22C38.25 21.6406 38.5781 20.9375 38.75 19.8906C38.9219 18.8281 39.0078 17.2422 39.0078 15.1328V14.8516C39.0078 13.1016 38.9219 11.7812 38.75 10.8906C38.5938 9.98437 38.2812 9.375 37.8125 9.0625C37.3438 8.75 36.6328 8.59375 35.6797 8.59375H32.6328V22.5156Z" fill="#3A3A3A"/>
</svg>
